HIERARCHY
ROOT Hips
{
	OFFSET 0.00000 0.00000 0.00000
	CHANNELS 6 Xposition Yposition Zposition Yrotation Zrotation Xrotation 
	JOINT Lumbar
	{
		OFFSET 0 0 0
		CHANNELS 3 Zrotation Xrotation Yrotation
		JOINT Neck
		{
			OFFSET 0.00 0.2701 0.00
			CHANNELS 3 Zrotation Xrotation Yrotation
			End Site
			{
				OFFSET 0.00 0.1379 0.00
			}
		}
		JOINT RightShoulder
		{
			OFFSET 0.0119 0.2289 0.1181
			CHANNELS 3 Zrotation Xrotation Yrotation
			JOINT RightElbow
			{
				OFFSET 0.00 -0.1475 0.00
				CHANNELS 2 Zrotation Yrotation
				JOINT RightWrist
				{
					OFFSET 0.00 -0.1605 0.00
					CHANNELS 2 Zrotation Xrotation
					End Site
					{
						OFFSET 0.0040 -0.1068 0.0006
					}
				}
			}
		}
		JOINT LeftShoulder
		{
			OFFSET 0.0119 0.2289 -0.1181
			CHANNELS 3 Zrotation Xrotation Yrotation
			JOINT LeftElbow
			{
				OFFSET 0.00 -0.1475 0.00
				CHANNELS 2 Zrotation Yrotation
				JOINT LeftWrist
				{
					OFFSET 0.00 -0.1605 0.00
					CHANNELS 2 Zrotation Xrotation
					End Site
					{
						OFFSET 0.0040 -0.1068 -0.0006
					}
				}
			}
		}
	}
	JOINT RightHip
	{
		OFFSET 0.0316 -0.0424 0.0458
		CHANNELS 3 Zrotation Xrotation Yrotation
		JOINT RightKnee
		{
			OFFSET 0.00 -0.2438 0.00
			CHANNELS 1 Zrotation
			JOINT RightAnkle
			{
				OFFSET 0.00 -0.2449 0.00
				CHANNELS 3 Zrotation Xrotation Yrotation
				End Site
				{
					OFFSET 0.1237 -0.0542 0.0051
				}
			}
		}
	}
	JOINT LeftHip
	{
		OFFSET 0.0316 -0.0424 -0.0458
		CHANNELS 3 Zrotation Xrotation Yrotation
		JOINT LeftKnee
		{
			OFFSET 0.00 -0.2438 0.00
			CHANNELS 1 Zrotation
			JOINT LeftAnkle
			{
				OFFSET 0.00 -0.2449 0.00
				CHANNELS 3 Zrotation Xrotation Yrotation
				End Site
				{
					OFFSET 0.1237 -0.0542 -0.0051
				}
			}
		}
	}
}
MOTION
Frames: 20
Frame Time: 0.02
0 0.57926 -0 138.68753 0 -0.38288 0.59123 5.50657 -4.67564 -52.77788 -4.88283 -4.08253 52.62013 -9.85314 6.18484 10.35245 82.90032 -1.92359 -5.37172 48.53244 23.07643 -21.4768 14.21776 -102.97332 -14.53687 9.74693 -5.6917 8.71216 5.00721 -5.87608 -13.70186 -10.73908 -19.26173 4.41244 8.5049 5.08548 -21.37809 -4.49682 2.75711 9.45467
-0.0003 0.5789 0.00038 138.53019 0 -0.6178 0.92112 5.79665 -8.53951 -54.51453 -9.65288 -4.30291 54.74872 -7.54096 5.72221 10.48471 83.38826 -2.10981 -5.60844 51.41639 26.26765 -23.52477 16.15796 -106.0563 -18.51005 9.41338 -5.62917 8.89423 5.34304 -6.0133 -13.02352 -8.92555 -19.27659 3.58528 8.61774 5.92092 -20.27969 -4.73252 2.72669 9.513
-0.00061 0.57854 0.00077 138.3752 0 -0.85176 1.24924 6.08457 -12.37316 -56.23746 -14.38497 -4.5222 56.85947 -5.24628 5.26324 10.61541 83.87183 -2.29446 -5.8429 54.2798 29.43548 -25.55634 18.09292 -109.11444 -22.45309 9.08229 -5.56702 9.075 5.67328 -6.14979 -12.34969 -7.12591 -19.28856 2.76055 8.72932 6.75654 -19.18131 -4.96735 2.69599 9.56674
-0.00093 0.57819 0.00117 138.22747 0 -1.08462 1.57391 6.36791 -16.13106 -57.9244 -19.02042 -4.73852 58.92326 -2.99768 4.81338 10.74255 84.34324 -2.47553 -6.07191 57.08473 32.54701 -27.5329 20.043 -112.10165 -26.31561 8.75768 -5.50615 9.25415 5.99921 -6.28426 -11.68833 -5.36371 -19.30261 1.93644 8.83751 7.60379 -18.07048 -5.2006 2.66391 9.60352
-0.00119 0.57782 0.00152 138.04057 0 -1.32384 1.91736 6.67699 -20.29925 -59.80439 -24.1783 -4.96966 61.24027 -0.50333 4.314 10.89018 84.87971 -2.67665 -6.33132 60.19425 35.9642 -29.78969 21.93359 -115.4628 -30.60648 8.39861 -5.43894 9.44405 6.36559 -6.4289 -10.96217 -3.40269 -19.32176 1.10782 8.9643 8.39273 -17.02337 -5.44179 2.63917 9.73109
-0.00157 0.57748 0.00198 137.93721 0 -1.54898 2.22038 6.93033 -23.58935 -61.27256 -28.21894 -5.16984 63.01637 1.46762 3.92075 10.99321 85.2776 -2.83442 -6.52511 62.65997 38.72647 -31.45912 23.93409 -118.03087 -33.98584 8.11286 -5.3849 9.60959 6.63411 -6.55224 -10.37295 -1.86448 -19.31917 0.29042 9.05117 9.30195 -15.84405 -5.66622 2.5989 9.66587
-0.00231 0.57721 0.00275 138.06547 0 -1.7438 2.41886 7.03968 -24.507 -61.61497 -29.23134 -5.28174 63.31681 2.00313 3.81389 10.98138 85.29352 -2.87869 -6.54563 63.31777 39.73176 -31.42572 26.42545 -118.38555 -34.8541 8.02887 -5.36953 9.72238 6.73439 -6.61521 -10.16685 -1.49098 -19.34987 -0.52487 9.03014 10.60017 -14.24062 -5.84647 2.51337 9.05316
-0.00317 0.57697 0.00364 138.27774 0 -1.92318 2.57528 7.09116 -24.52853 -61.53905 -29.10554 -5.3629 63.06724 2.00824 3.81596 10.92325 85.16942 -2.87821 -6.49863 63.3295 40.0669 -30.81186 28.99715 -117.94154 -34.79826 8.01913 -5.36701 9.80825 6.71994 -6.65708 -10.09816 -1.5443 -19.34388 -1.32435 8.96838 12.01064 -12.51304 -6.00942 2.41255 8.24876
-0.00397 0.57672 0.00448 138.45151 0 -2.10413 2.74671 7.16265 -24.92829 -61.64849 -29.46564 -5.46024 63.05903 2.25107 3.77156 10.88058 85.10887 -2.89407 -6.47714 63.66019 40.67704 -30.51899 31.41206 -117.8819 -35.16699 7.97555 -5.3571 9.89688 6.68819 -6.70967 -9.96277 -1.404 -19.29092 -2.11338 8.9237 13.33466 -10.87827 -6.17943 2.3201 7.53998
-0.00479 0.57643 0.0053 138.62786 0 -2.30749 2.93599 7.26026 -25.45448 -61.78137 -29.96158 -5.54876 63.0908 2.51084 3.71162 10.86044 85.04859 -2.92635 -6.47679 63.89358 41.41418 -29.99414 34.33 -117.74293 -35.53138 7.93163 -5.35377 10.02466 6.93828 -6.75736 -9.84417 -1.26292 -19.49676 -2.97699 8.88498 14.80882 -9.0891 -6.35367 2.22144 6.79186
-0.0056 0.57624 0.0062 138.81725 0 -2.4612 3.07741 7.29024 -25.49922 -61.76172 -29.89954 -5.6477 62.90385 2.60553 3.71338 10.78369 84.95458 -2.91433 -6.41724 64.16378 41.72452 -29.80266 36.22468 -117.56547 -35.66608 7.90702 -5.33975 10.06555 6.58819 -6.81036 -9.72473 -1.22411 -19.16719 -3.68117 8.82425 15.996 -7.59335 -6.51392 2.13236 6.08457
-0.00634 0.57631 0.00733 139.03497 0 -2.47577 3.10286 7.14302 -24.48246 -61.45939 -28.61863 -5.78721 62.28798 2.40702 3.82874 10.55108 84.80102 -2.78669 -6.20331 64.7988 41.04775 -30.77572 35.22862 -117.59944 -35.56363 7.90877 -5.29344 9.86391 4.48779 -6.88206 -9.55648 -1.36932 -17.26152 -3.95245 8.71189 16.37225 -6.92581 -6.64893 2.07106 5.49823
-0.00707 0.57647 0.00854 139.2603 0 -2.44199 3.08031 6.93051 -23.00501 -61.01031 -26.80887 -5.93645 61.46274 2.05437 4.00774 10.26536 84.61847 -2.61688 -5.93366 65.47234 39.95954 -32.08472 33.20838 -117.60063 -35.23375 7.92864 -5.23585 9.57741 1.8098 -6.95995 -9.38508 -1.6017 -14.83785 -4.06329 8.5789 16.45457 -6.55997 -6.76881 2.0204 4.96639
-0.00782 0.57658 0.00972 139.47401 0 -2.43416 3.07614 6.75102 -21.70412 -60.6059 -25.21097 -6.07977 60.7077 1.75103 4.17772 10.01082 84.44965 -2.4691 -5.69422 66.06092 39.04171 -33.17377 31.68722 -117.53509 -34.89124 7.94651 -5.1832 9.33583 -0.52409 -7.03581 -9.22346 -1.79007 -12.72173 -4.24522 8.4559 16.66507 -6.06425 -6.88953 1.96637 4.43551
-0.00852 0.5767 0.01089 139.72604 0 -2.40903 3.08582 6.55568 -20.50244 -60.28371 -23.68762 -6.23262 60.04162 1.51758 4.26873 9.72404 84.27366 -2.30739 -5.43123 66.91679 38.17047 -34.52893 30.02767 -117.78131 -34.99102 7.94232 -5.13185 9.0667 -3.20582 -7.10795 -9.03116 -2.01145 -10.30123 -4.43394 8.32899 16.9006 -5.53423 -7.03488 1.90545 3.7911
-0.00932 0.57684 0.01211 139.8978 0 -2.40861 3.05479 6.37819 -19.00641 -59.75606 -21.90573 -6.36299 59.14414 1.10781 4.53634 9.49353 84.10745 -2.16561 -5.20561 67.22714 37.11334 -35.41427 28.41106 -117.38704 -34.14661 7.98532 -5.07487 8.83486 -5.2996 -7.18918 -8.90054 -2.17978 -8.39032 -4.57107 8.20574 17.01486 -5.14825 -7.12585 1.86182 3.39636
-0.01044 0.577 0.01346 139.85535 0 -2.4885 2.93149 6.26987 -16.7282 -58.74134 -19.48011 -6.47585 57.69312 0.26116 5.28888 9.42199 83.97704 -2.08658 -5.09147 66.07944 35.64653 -34.94815 27.17175 -115.18153 -30.58976 8.17134 -5.00557 8.72945 -5.61783 -7.29727 -8.93774 -2.17321 -8.03189 -4.60104 8.09856 16.84666 -5.09265 -7.06786 1.86155 3.69839
-0.01166 0.57718 0.01488 139.72966 0 -2.59491 2.76735 6.18137 -14.18927 -57.51974 -16.82946 -6.55806 56.01386 -0.75653 6.21363 9.41086 83.858 -2.02986 -5.01827 64.37458 34.01048 -33.99596 26.00905 -112.34575 -26.12428 8.40031 -4.93084 8.66417 -5.32442 -7.41366 -9.03713 -2.10926 -8.20228 -4.58534 7.99574 16.56942 -5.17108 -6.9562 1.87869 4.24716
-0.01283 0.57735 0.01627 139.63554 0 -2.68912 2.61678 6.08146 -11.82839 -56.36461 -14.32626 -6.62246 54.41811 -1.70219 7.05109 9.37851 83.73319 -1.96471 -4.93011 62.88929 32.45231 -33.25003 24.80555 -109.83614 -22.18618 8.59842 -4.85822 8.57882 -5.31922 -7.52435 -9.1094 -2.07427 -8.11683 -4.59336 7.8906 16.35461 -5.18444 -6.87084 1.88915 4.67008
-0.01401 0.57753 0.01763 139.56825 0 -2.78239 2.48623 5.98918 -9.20036 -55.31627 -11.61263 -6.81734 52.8958 -2.63244 7.93059 9.31809 83.60926 -1.89045 -4.82433 61.54401 30.87186 -32.57459 23.59173 -107.15829 -17.76029 8.84644 -4.78673 8.49803 -5.29673 -7.6439 -9.17648 -2.0311 -8.07318 -4.5837 7.7864 16.07617 -5.22553 -6.77693 1.89492 5.1517
